<svg class="product-icon" viewBox="0 0 168 128" xmlns="http://www.w3.org/2000/svg">
    <path class="product-icon__key" fill="#0b9dcc" d="M84,58c6.6,0,12-5.4,12-12s-5.4-12-12-12s-12,5.4-12,12S77.4,58,84,58z M84,38c4.4,0,8,3.6,8,8s-3.6,8-8,8
s-8-3.6-8-8S79.6,38,84,38z M107.2,78C104.5,67.4,95,60,84,60s-20.5,7.4-23.2,18c-0.2,0.9,0.2,1.8,1,2.2C68.5,84,76.2,86,84,86
s15.5-2,22.3-5.8C107.1,79.8,107.5,78.9,107.2,78z M84,82c-6.6,0-13.1-1.6-18.9-4.5C67.8,69.5,75.4,64,84,64s16.2,5.5,18.9,13.5
C97.1,80.4,90.6,82,84,82z"></path>
    <path class="product-icon__base" fill="#001b41" d="M156.4,55.6l-8.9,9.7c-0.4,0.4-0.9,0.7-1.5,0.7c0,0,0,0,0,0c0,0,0,0,0,0c-0.4,0-0.8-0.1-1.1-0.3l-11-7.3
c-0.9-0.6-1.2-1.9-0.6-2.8c0.6-0.9,1.9-1.2,2.8-0.6l7.7,5.1C141.9,28.9,115.8,4,84,4C55.4,4,30.6,24.3,25.1,52.4
c-0.2,1.1-1.3,1.8-2.3,1.6c-1.1-0.2-1.8-1.3-1.6-2.3C27.1,21.7,53.5,0,84,0c33.6,0,61.3,26.1,63.8,59.1l5.6-6.1
c0.7-0.8,2-0.9,2.8-0.1C157,53.5,157.1,54.8,156.4,55.6z M145.2,74c-1.1-0.2-2.1,0.5-2.3,1.6c-5.5,28-30.3,48.4-58.9,48.4
c-31.8,0-57.9-24.9-59.9-56.2l7.7,5.1c0.3,0.2,0.7,0.3,1.1,0.3c0.6,0,1.3-0.3,1.7-0.9c0.6-0.9,0.4-2.2-0.6-2.8l-11-7.3
c-0.8-0.5-1.9-0.4-2.5,0.3c0,0-8.9,9.8-8.9,9.8c-0.7,0.8-0.7,2.1,0.1,2.8c0.4,0.4,0.9,0.5,1.3,0.5c0.5,0,1.1-0.2,1.5-0.7l5.6-6.1
c2.5,33,30.2,59.1,63.8,59.1c30.5,0,56.9-21.7,62.8-51.6C147,75.3,146.3,74.2,145.2,74z"></path>
  </svg>