<svg class="product-icon" viewBox="0 0 168 128" xmlns="http://www.w3.org/2000/svg">
    <path class="product-icon__key" d="M58,72h6v14c0,1.1,0.9,2,2,2h36c1.1,0,2-0.9,2-2V72h6c0.9,0,1.7-0.6,1.9-1.5c0.2-0.9-0.1-1.8-0.9-2.2l-26-16         c-0.6-0.4-1.5-0.4-2.1,0l-26,16c-0.8,0.5-1.1,1.4-0.9,2.2C56.3,71.4,57.1,72,58,72z M84,56.3L102.9,68H102c-1.1,0-2,0.9-2,2v14H68         V70c0-1.1-0.9-2-2-2h-0.9L84,56.3z M110,108h-6V94c0-1.1-0.9-2-2-2H66c-1.1,0-2,0.9-2,2v14h-6c-0.9,0-1.7,0.6-1.9,1.5         c-0.2,0.9,0.1,1.8,0.9,2.2l26,16c0.3,0.2,0.7,0.3,1,0.3s0.7-0.1,1-0.3l26-16c0.8-0.5,1.1-1.4,0.9-2.2         C111.7,108.6,110.9,108,110,108z M84,123.7L65.1,112H66c1.1,0,2-0.9,2-2V96h32v14c0,1.1,0.9,2,2,2h0.9L84,123.7z" fill="#0b9dcc"></path>
    <path class="product-icon__base" d="M136,104h-22c-1.1,0-2-0.9-2-2s0.9-2,2-2h22c15.4,0,28-12.6,28-28c0-12.4-7.9-23.1-19.7-26.8         c-0.7-0.2-1.2-0.7-1.3-1.4C139.3,29.8,126.5,20,112,20c-0.6,0-1.3,0-2,0.1c-0.6,0-1.2-0.2-1.6-0.7C99.6,9.6,87.1,4,74,4         C52.7,4,34.3,18.5,29.3,39.2c-0.2,0.7-0.8,1.3-1.5,1.5C14,43.6,4,55.9,4,70c0,16.5,13.5,30,30,30h20c1.1,0,2,0.9,2,2s-0.9,2-2,2H34         C15.3,104,0,88.7,0,70c0-15.6,10.7-29.2,25.7-33C31.6,15.2,51.2,0,74,0c13.9,0,27.2,5.8,36.7,16c0.5,0,0.9,0,1.3,0         c16,0,30,10.5,34.5,25.8C159.4,46.2,168,58.3,168,72C168,89.6,153.6,104,136,104z" fill="#001b41"></path>
  </svg>