<svg class="product-icon" viewBox="0 0 128 128" xmlns="http://www.w3.org/2000/svg">
                            <path class="product-icon__base" d="M88,16H57.05V12H90a2,2,0,0,1,2,2V26.22H88Zm8-3.18v13.4h4V12.82A8.84,8.84,0,0,0,91.17,4H57.05V8H91.17A4.83,4.83,0,0,1,96,12.82Zm0,88.38v14A4.82,4.82,0,0,1,91.18,120H57.05v4H91.18a8.83,8.83,0,0,0,8.82-8.82v-14Zm-8,0V112H57.05v4H90a2,2,0,0,0,2-2V101.2Z" fill="#001b41"></path>
                            <path class="product-icon__key" d="M120.8,26H57.05v4H120.8a3.26,3.26,0,0,1,1.32.29L95.24,49.79c-1.12.85-4.62,3.06-7.38,3.06s-6.26-2.21-7.4-3.08L57.7,33c-.2-.15-.65,4.49-.65,4.49L78.06,53s.33.25.79.56L57.05,70.72s.49,4.71.71,4.54l24.9-19.64a13.54,13.54,0,0,0,5.2,1.23,13.46,13.46,0,0,0,5.22-1.24l28.56,22.27a3.35,3.35,0,0,1-.84.13H57.05v4h59v2a4,4,0,0,1-4,4H57.05v4h51v2a4,4,0,0,1-4,4H57.05v4h47a8,8,0,0,0,8-8V92a8,8,0,0,0,8-8V82h.8a7.21,7.21,0,0,0,7.2-7.2V33.2A7.21,7.21,0,0,0,120.8,26ZM124,74.64,96.9,53.51c.42-.28.69-.48.72-.51L124,33.87Z" fill="#0b9dcc"></path>
                            <path class="product-icon__base" d="M28.56,39.38c-8.27,0-14.74,11-14.74,25.09s6.47,25.1,14.74,25.1,14.73-11,14.73-25.1S36.82,39.38,28.56,39.38Zm5.14,6.68-1.56,2.42a2,2,0,0,0,.6,2.77,2,2,0,0,0,1.08.32,2,2,0,0,0,1.68-.92l.63-1a27.18,27.18,0,0,1,1.54,3.84l-1.61,1a2,2,0,0,0,2.08,3.42l.53-.32a38.26,38.26,0,0,1,.57,4.93h-.7a2,2,0,0,0,0,4h.69a37.47,37.47,0,0,1-.53,4.62l-.34-.24a2,2,0,0,0-2.31,3.27l1.64,1.15A26.29,26.29,0,0,1,36,79.42l-.77-1.28a2,2,0,0,0-3.42,2.08L33.56,83a8.51,8.51,0,0,1-2.74,2V83.58a2,2,0,0,0-4,0v1.67a8,8,0,0,1-3-2l1.85-3a2,2,0,0,0-3.42-2.08l-1,1.59a24.65,24.65,0,0,1-1.75-4.18l1.93-1.36a2,2,0,1,0-2.3-3.27l-.67.47a39,39,0,0,1-.57-4.85h1.06a2,2,0,0,0,0-4H17.87a37.7,37.7,0,0,1,.61-5.13l.86.52a2,2,0,0,0,1,.29,2,2,0,0,0,1-3.71l-1.77-1.08-.15-.07a25,25,0,0,1,1.65-4L22,50.65a2,2,0,0,0,1.68.92,2.09,2.09,0,0,0,1.09-.32,2,2,0,0,0,.59-2.77L23.72,46a.76.76,0,0,0-.11-.14,8.14,8.14,0,0,1,3-2.11V45.5a2,2,0,0,0,4,0V43.8A8.58,8.58,0,0,1,33.7,46.06ZM21.77,64.47c0,6.09,2.92,10.68,6.79,10.68s6.78-4.59,6.78-10.68-2.92-10.68-6.78-10.68S21.77,58.38,21.77,64.47Zm9.57,0c0,4-1.67,6.68-2.78,6.68s-2.79-2.66-2.79-6.68,1.68-6.68,2.79-6.68S31.34,60.46,31.34,64.47ZM56.47,2.06l-8.26-2a2,2,0,0,0-1.08,0L34.85,4h-26A8.84,8.84,0,0,0,0,12.82V115.18A8.83,8.83,0,0,0,8.82,124H35l12.38,3.91a2,2,0,0,0,.6.09,2.05,2.05,0,0,0,.49-.06l7.94-2A2,2,0,0,0,57.94,124L58,4A2,2,0,0,0,56.47,2.06ZM12,93.72A2,2,0,0,0,13,92V80a2,2,0,0,0-1-1.72V51.72A2,2,0,0,0,13,50V38a2,2,0,0,0-1-1.72V15.46L46,4.65V123.27L12,112.53ZM8.82,120A4.82,4.82,0,0,1,4,115.18V12.82A4.83,4.83,0,0,1,8.83,8H22.27L9.39,12.09A2,2,0,0,0,8,14V36.28A2,2,0,0,0,7,38V50a2,2,0,0,0,1,1.72V78.28A2,2,0,0,0,7,80V92a2,2,0,0,0,1,1.72V114a2,2,0,0,0,1.4,1.91l13,4.09Zm45.12,2.44-3.94,1V4.61l4,1Z" fill="#001b41"></path>
                          </svg>